Tim (Rudd) is a rising executive who "succeeds" in finding the perfect guest, IRS employee Barry (Carell), for his boss monthly event, a so-called "dinner for idiots," which offers certain advantages to the exec who shows up with the biggest buffoon.


 
http://www.imdb.com/title/tt0427152/
MOVIEmeter: Up 442% in popularity this week
User Rating:6.4/10
Genre:Comedy



Video
Format : MPEG-4 Visual
Format profile : Advanced Simple@L5
Format settings, BVOP : Yes
Format settings, QPel : No
Format settings, GMC : No warppoints
Format settings, Matrix : Default (H.263)
Muxing mode : Packed bitstream
Codec ID : XVID
Codec ID/Hint : XviD
Duration : 1h 49mn
Bit rate : 1 540 Kbps
Width : 720 pixels
Height : 408 pixels
Display aspect ratio : 16:9
Frame rate : 30.000 fps
Color space : YUV
Chroma subsampling : 4:2:0
Bit depth : 8 bits
Scan type : Progressive
Bits/(Pixel*Frame) : 0.175
Stream size : 1.17 GiB (85)
Writing library : XviD 1.2.1 (UTC 2008-12-04)

Audio
Format : MPEG Audio
Format version : Version 1
Format profile : Layer 3
Mode : Joint stereo
Codec ID : 55
Codec ID/Hint : MP3
Duration : 1h 49mn
Bit rate mode : Constant
Bit rate : 256 Kbps
Channel(s) : 2 channels
Sampling rate : 48.0 KHz
Stream size : 200 MiB (14)
Alignment : Split accross interleaves
Interleave, duration : 33 ms (1.00 video frame)
Interleave, preload duration : 500 ms



Screenshots:
 
http://postimg.com/image/19000/18991.jpg